<svg width="80" height="80" viewBox="0 0 80 80" fill="none" xmlns="http://www.w3.org/2000/svg">
<path d="M40.532 38.7333C40.432 38.7333 40.3653 38.7333 40.2653 38.7333C40.0987 38.7 39.8653 38.7 39.6653 38.7333C29.9987 38.4333 22.6987 30.8333 22.6987 21.4667C22.6987 11.9333 30.4653 4.16666 39.9987 4.16666C49.532 4.16666 57.2987 11.9333 57.2987 21.4667C57.2653 30.8333 49.932 38.4333 40.632 38.7333C40.5987 38.7333 40.5653 38.7333 40.532 38.7333ZM39.9987 9.16666C33.232 9.16666 27.6987 14.7 27.6987 21.4667C27.6987 28.1333 32.8987 33.5 39.532 33.7333C39.6987 33.7 40.1653 33.7 40.5987 33.7333C47.132 33.4333 52.2653 28.0667 52.2987 21.4667C52.2987 14.7 46.7653 9.16666 39.9987 9.16666Z" fill="white"/>
<path d="M40.5654 75.1667C34.032 75.1667 27.4654 73.5 22.4987 70.1667C17.8654 67.1 15.332 62.9 15.332 58.3333C15.332 53.7667 17.8654 49.5333 22.4987 46.4333C32.4987 39.8 48.6987 39.8 58.632 46.4333C63.232 49.5 65.7987 53.7 65.7987 58.2667C65.7987 62.8333 63.2654 67.0667 58.632 70.1667C53.632 73.5 47.0987 75.1667 40.5654 75.1667ZM25.2654 50.6333C22.0654 52.7667 20.332 55.5 20.332 58.3667C20.332 61.2 22.0987 63.9333 25.2654 66.0333C33.5654 71.6 47.5654 71.6 55.8654 66.0333C59.0654 63.9 60.7987 61.1667 60.7987 58.3C60.7987 55.4667 59.032 52.7333 55.8654 50.6333C47.5654 45.1 33.5654 45.1 25.2654 50.6333Z" fill="white"/>
</svg>
