<?xml version="1.0" encoding="UTF-8" standalone="no"?>
<!DOCTYPE svg PUBLIC "-//W3C//DTD SVG 1.1//EN" "http://www.w3.org/Graphics/SVG/1.1/DTD/svg11.dtd">
<svg width="100%" height="100%" viewBox="0 0 1453 166" version="1.1" xmlns="http://www.w3.org/2000/svg" xmlns:xlink="http://www.w3.org/1999/xlink" xml:space="preserve" xmlns:serif="http://www.serif.com/" style="fill-rule:evenodd;clip-rule:evenodd;stroke-linejoin:round;stroke-miterlimit:2;">
    <g transform="matrix(1,0,0,1,-581.732,-840.258)">
        <g transform="matrix(1,0,0,1,141.38,190.543)">
            <path d="M514.957,713.16C526.586,713.16 536.425,714.539 544.476,717.297C552.527,720.055 559.049,723.745 564.044,728.367C569.038,732.989 572.691,738.207 575.002,744.021C577.313,749.835 578.468,755.873 578.468,762.135C578.468,768.546 577.238,774.882 574.778,781.144C572.318,787.406 568.33,793.071 562.814,798.14C557.298,803.209 550.067,807.309 541.122,810.44C532.176,813.57 521.293,815.136 508.471,815.136C502.21,815.136 496.172,814.502 490.357,813.235C484.543,811.968 479.176,810.29 474.256,808.203C469.336,806.116 464.901,803.805 460.95,801.271C456.999,798.736 453.607,796.127 450.775,793.444L480.741,766.161C483.723,769.59 487.599,772.385 492.37,774.547C497.141,776.708 503.03,777.789 510.037,777.789C518.088,777.789 524.312,776.485 528.71,773.876C533.108,771.267 535.307,768.397 535.307,765.266C535.307,761.837 532.773,758.706 527.704,755.873C522.635,753.041 514.659,751.624 503.775,751.624C491.997,751.624 482.083,750.245 474.032,747.487C465.981,744.729 459.459,741.077 454.464,736.529C449.47,731.982 445.855,726.764 443.618,720.875C441.382,714.986 440.264,708.985 440.264,702.873C440.264,696.462 441.494,690.089 443.954,683.752C446.414,677.416 450.402,671.714 455.918,666.645C461.434,661.576 468.665,657.476 477.61,654.345C486.556,651.214 497.439,649.649 510.26,649.649C516.522,649.649 522.56,650.282 528.375,651.549C534.189,652.817 539.556,654.494 544.476,656.581C549.396,658.668 553.831,660.979 557.782,663.514C561.733,666.048 565.125,668.657 567.957,671.341L537.991,698.624C535.009,695.195 531.133,692.399 526.362,690.238C521.591,688.076 515.702,686.995 508.695,686.995C500.644,686.995 494.42,688.3 490.022,690.909C485.624,693.518 483.425,696.388 483.425,699.518C483.425,702.947 485.959,706.078 491.028,708.911C496.097,711.744 504.073,713.16 514.957,713.16Z" style="fill:rgb(71,112,255);fill-rule:nonzero;"/>
        </g>
        <g transform="matrix(1,0,0,1,141.38,190.543)">
            <path d="M705.938,698.624C702.36,694.897 698.111,692.027 693.191,690.014C688.271,688.001 682.68,686.995 676.419,686.995C670.008,686.995 664.305,688.076 659.311,690.238C654.316,692.399 650.105,695.493 646.676,699.518C643.247,703.544 640.638,708.352 638.849,713.943C637.06,719.533 636.165,725.683 636.165,732.392C636.165,746.108 639.669,757.103 646.676,765.378C653.683,773.652 663.597,777.789 676.419,777.789C683.128,777.789 689.091,776.634 694.309,774.323C699.527,772.012 703.851,768.77 707.28,764.595L733.892,795.233C726.736,801.643 718.312,806.563 708.622,809.992C698.931,813.421 688.271,815.136 676.642,815.136C664.268,815.136 653.012,813.16 642.874,809.21C632.736,805.259 624.052,799.631 616.821,792.325C609.59,785.02 603.999,776.298 600.049,766.161C596.098,756.023 594.122,744.692 594.122,732.169C594.122,719.794 596.098,708.538 600.049,698.4C603.999,688.262 609.59,679.578 616.821,672.347C624.052,665.116 632.773,659.526 642.986,655.575C653.198,651.624 664.492,649.649 676.866,649.649C688.942,649.649 699.975,651.512 709.963,655.239C719.952,658.967 728.599,664.334 735.905,671.341L705.938,698.624Z" style="fill:rgb(71,112,255);fill-rule:nonzero;"/>
        </g>
        <g transform="matrix(1,0,0,1,141.38,190.543)">
            <path d="M756.031,810.663L756.031,759.228L796.956,721.658L847.049,721.658C853.758,721.658 858.753,720.092 862.033,716.962C865.313,713.831 866.953,710.327 866.953,706.451C866.953,702.575 865.313,699.108 862.033,696.052C858.753,692.996 853.758,691.468 847.049,691.468L787.34,691.468L756.031,654.121L853.535,654.121C862.927,654.121 871.127,655.649 878.134,658.706C885.141,661.762 890.993,665.75 895.689,670.67C900.386,675.59 903.889,681.181 906.2,687.442C908.511,693.704 909.666,700.115 909.666,706.675C909.666,711.594 908.995,716.403 907.654,721.099C906.312,725.795 904.374,730.268 901.839,734.517C899.305,738.766 896.099,742.567 892.223,745.922C888.347,749.276 883.8,752.072 878.582,754.308L913.915,810.663L870.978,810.663L838.775,759.004L798.969,759.004L798.969,810.663L756.031,810.663Z" style="fill:rgb(71,112,255);fill-rule:nonzero;"/>
        </g>
        <g transform="matrix(1,0,0,1,141.38,190.543)">
            <path d="M1282.68,654.121L1350.22,746.705L1350.22,694.375L1393.38,654.121L1393.38,810.663L1350.44,810.663L1350.44,810.216L1282.68,717.409L1282.68,810.663L1239.52,810.663L1239.52,654.121L1282.68,654.121Z" style="fill:rgb(71,112,255);fill-rule:nonzero;"/>
        </g>
        <g transform="matrix(1,0,0,1,141.38,190.543)">
            <path d="M1456.89,654.121L1456.89,773.317L1546.35,773.317L1546.35,810.663L1413.73,810.663L1413.73,694.151L1456.89,654.121ZM1413.51,694.375L1413.73,694.151L1413.51,694.375Z" style="fill:rgb(71,112,255);fill-rule:nonzero;"/>
        </g>
        <g transform="matrix(1,0,0,1,141.38,190.543)">
            <path d="M1584.81,728.814L1651.01,728.814L1629.98,654.121L1674.49,654.121L1718.54,810.663L1673.82,810.663L1661.29,766.161L1619.03,766.161L1606.5,810.663L1562,810.663L1584.81,728.814Z" style="fill:rgb(71,112,255);fill-rule:nonzero;"/>
        </g>
        <g transform="matrix(1,0,0,1,141.38,190.543)">
            <path d="M1833.71,773.317C1839.53,773.317 1843.89,772.087 1846.79,769.627C1849.7,767.167 1851.15,764.446 1851.15,761.464C1851.15,758.483 1849.7,755.762 1846.79,753.302C1843.89,750.842 1839.53,749.612 1833.71,749.612L1781.61,749.612L1781.61,773.317L1833.71,773.317ZM1779.37,712.265L1833.71,712.265C1839.38,712.265 1843.55,711.184 1846.24,709.023C1848.92,706.861 1850.26,704.438 1850.26,701.755C1850.26,699.22 1848.92,696.872 1846.24,694.71C1843.55,692.548 1839.38,691.468 1833.71,691.468L1771.1,691.468L1738.67,654.121L1837.29,654.121C1846.68,654.121 1854.85,655.5 1861.78,658.258C1868.71,661.016 1874.52,664.632 1879.22,669.104C1883.92,673.577 1887.42,678.646 1889.73,684.311C1892.04,689.977 1893.2,695.791 1893.2,701.755C1893.2,706.973 1892.3,712.116 1890.51,717.185C1888.73,722.254 1886.04,726.95 1882.46,731.274C1886.04,735.598 1888.73,740.368 1890.51,745.586C1892.3,750.804 1893.2,756.172 1893.2,761.688C1893.2,767.8 1892.04,773.801 1889.73,779.69C1887.42,785.579 1883.92,790.797 1879.22,795.344C1874.52,799.892 1868.71,803.582 1861.78,806.414C1854.85,809.247 1846.68,810.663 1837.29,810.663L1738.67,810.663L1738.67,749.612L1779.37,712.265Z" style="fill:rgb(71,112,255);fill-rule:nonzero;"/>
        </g>
        <path d="M1118.36,882.01L1118.36,901.913L1340.65,901.913L1300.62,939.26L1118.58,939.26L1118.58,963.859L1340.65,963.859L1340.65,1001.21L1075.42,1001.21L1075.42,844.664L1340.65,844.664L1340.65,882.01L1118.36,882.01Z" style="fill:rgb(248,163,0);fill-rule:nonzero;"/>
    </g>
</svg>
